HIERARCHY
ROOT Hips
{
	OFFSET -3.958830 18.904000 13.208200
	CHANNELS 6 Xposition Yposition Zposition Zrotation Yrotation Xrotation 
	JOINT LHipJoint
	{
		OFFSET 0.000000 0.000000 0.000000
		CHANNELS 3 Zrotation Yrotation Xrotation
		JOINT LeftUpLeg
		{
			OFFSET 1.800000 -1.400000 0.085000
			CHANNELS 3 Zrotation Yrotation Xrotation
			JOINT LeftLeg
			{
				OFFSET 2.215000 -6.000000 0.000000
				CHANNELS 3 Zrotation Yrotation Xrotation
				JOINT LeftFoot
				{
					OFFSET 2.500000 -6.900000 0.000000
					CHANNELS 3 Zrotation Yrotation Xrotation
					JOINT LeftToeBase
					{
						OFFSET 0.200000 -0.500000 1.950000
						CHANNELS 3 Zrotation Yrotation Xrotation
						End Site
						{
							OFFSET 0.000000 0.000000 0.000000
						}
					}
				}
			}
		}
	}
	JOINT RHipJoint
	{
		OFFSET 0.000000 0.000000 0.000000
		CHANNELS 3 Zrotation Yrotation Xrotation
		JOINT RightUpLeg
		{
			OFFSET -1.800000 -1.400000 0.085000
			CHANNELS 3 Zrotation Yrotation Xrotation
			JOINT RightLeg
			{
				OFFSET -2.215000 -6.000000 0.000000
				CHANNELS 3 Zrotation Yrotation Xrotation
				JOINT RightFoot
				{
					OFFSET -2.500000 -6.900000 0.000000
					CHANNELS 3 Zrotation Yrotation Xrotation
					JOINT RightToeBase
					{
						OFFSET -0.200000 -0.500000 1.950000
						CHANNELS 3 Zrotation Yrotation Xrotation
						End Site
						{
							OFFSET 0.000000 0.000000 0.000000
						}
					}
				}
			}
		}
	}
	JOINT LowerBack
	{
		OFFSET 0.000000 0.000000 0.000000
		CHANNELS 3 Zrotation Yrotation Xrotation
		JOINT Spine
		{
			OFFSET -0.087000 1.940000 -0.288900
			CHANNELS 3 Zrotation Yrotation Xrotation
			JOINT Spine1
			{
				OFFSET 0.000000 1.950000 0.060000
				CHANNELS 3 Zrotation Yrotation Xrotation
				JOINT Neck
				{
					OFFSET 0.000000 0.000000 0.000000
					CHANNELS 3 Zrotation Yrotation Xrotation
					JOINT Neck1
					{
						OFFSET 0.000000 1.600000 0.340000
						CHANNELS 3 Zrotation Yrotation Xrotation
						JOINT Head
						{
							OFFSET 0.000000 1.667000 -0.240000
							CHANNELS 3 Zrotation Yrotation Xrotation
							End Site
							{
								OFFSET 0.000000 0.000000 0.000000
							}
						}
					}
				}
				JOINT LeftShoulder
				{
					OFFSET 0.000000 0.000000 0.000000
					CHANNELS 3 Zrotation Yrotation Xrotation
					JOINT LeftArm
					{
						OFFSET 2.700000 1.550000 -0.730000
						CHANNELS 3 Zrotation Yrotation Xrotation
						JOINT LeftForeArm
						{
							OFFSET 5.450000 0.000000 0.000000
							CHANNELS 3 Zrotation Yrotation Xrotation
							JOINT LeftHand
							{
								OFFSET 3.450000 0.000000 0.000000
								CHANNELS 3 Zrotation Yrotation Xrotation
								JOINT LeftHandIndex1
								{
									OFFSET 0.750000 0.000000 0.000000
									CHANNELS 3 Zrotation Yrotation Xrotation
									End Site
									{
										OFFSET 0.000000 0.000000 0.000000
									}
								}
							}
						}
					}
				}
				JOINT RightShoulder
				{
					OFFSET 0.000000 0.000000 0.000000
					CHANNELS 3 Zrotation Yrotation Xrotation
					JOINT RightArm
					{
						OFFSET -2.700000 1.550000 -0.730000
						CHANNELS 3 Zrotation Yrotation Xrotation
						JOINT RightForeArm
						{
							OFFSET -5.450000 0.000000 0.000000
							CHANNELS 3 Zrotation Yrotation Xrotation
							JOINT RightHand
							{
								OFFSET -3.450000 0.000000 0.000000
								CHANNELS 3 Zrotation Yrotation Xrotation
								JOINT RightHandIndex1
								{
									OFFSET -0.750000 0.000000 0.000000
									CHANNELS 3 Zrotation Yrotation Xrotation
									End Site
									{
										OFFSET 0.000000 0.000000 0.000000
									}
								}
							}
						}
					}
				}
			}
		}
	}
}
MOTION
Frames: 12
Frame Time: 0.016667
0.594910 16.835110 -0.944880 -2.115282 0.036645 4.833189 -15.126556 13.452338 2.614325 8.989696 -1.593708 -17.887339 -6.625966 7.021998 17.681950 -0.787060 5.294076 3.135709 -0.238170 -0.743280 -0.126700 18.282097 -10.876487 2.417367 -10.926013 1.121706 -11.785812 10.281927 -6.365416 12.946234 0.311550 -4.496454 3.164130 -0.007750 1.189860 0.200950 -3.662683 -2.089600 -6.464637 7.080734 2.857779 1.829759 -1.234063 2.459785 7.514413 -2.176764 -4.457857 -7.068617 -8.762400 12.118198 24.502260 -4.634270 13.664220 11.328800 3.159547 4.629746 2.127572 -25.109906 -19.446609 3.576598 69.399632 -43.451882 -29.149626 -4.682204 2.685338 -0.001390 1.003100 -0.908400 0.134670 1.220437 -2.086309 2.020157 43.554477 7.554073 -7.069362 -33.715091 46.978226 -12.225029 1.383490 -1.706992 -0.734400 0.364610 0.401860 -0.285750 
0.596110 16.835810 -0.945220 -2.170585 -0.013570 4.824234 -15.127066 13.449991 2.615936 9.068672 -1.584293 -17.927567 -6.663982 7.056420 17.754495 -0.785960 5.305953 3.127842 -0.234870 -0.739590 -0.121880 18.281483 -10.877233 2.419244 -10.871176 1.123503 -11.772943 10.260648 -6.352342 12.924933 0.309281 -4.491461 3.164203 -0.006310 1.183650 0.202130 -3.659935 -2.083239 -6.469964 7.010416 2.916947 1.854660 -1.065573 2.475327 7.548835 -2.214572 -4.364834 -7.076892 -8.596024 12.075744 24.571042 -4.689850 13.734120 11.251450 3.304089 4.511972 2.106370 -24.371107 -19.303791 3.463725 68.637491 -43.655926 -28.745691 -4.676429 2.690761 0.001200 1.000870 -0.904180 0.133580 1.162124 -2.030134 2.053773 43.468646 7.521827 -7.081151 -33.773644 46.832318 -12.224056 1.385643 -1.708713 -0.732810 0.361060 0.398930 -0.288070 
0.597940 16.836890 -0.946030 -2.219365 -0.115209 4.804977 -15.130837 13.449434 2.621211 9.164884 -1.569951 -17.999133 -6.737359 7.121842 17.892723 -0.780251 5.326844 3.114222 -0.231130 -0.734760 -0.111540 18.276777 -10.877411 2.421244 -10.824340 1.125939 -11.755331 10.235078 -6.339281 12.912321 0.304266 -4.483201 3.162802 -0.006300 1.171560 0.205160 -3.645426 -2.081980 -6.481011 6.760958 3.023177 1.924566 -0.686609 2.496692 7.560995 -2.292205 -4.180939 -7.065973 -8.271018 11.979589 24.711601 -4.877820 13.915950 11.092780 3.532493 4.343115 2.054695 -22.996835 -18.969508 3.265243 67.111529 -44.225966 -28.019450 -4.665579 2.697622 0.004640 0.996710 -0.894270 0.130590 1.113302 -1.968781 2.083961 43.241729 7.501102 -7.070993 -33.861724 46.601410 -12.205481 1.391630 -1.708900 -0.728510 0.354940 0.393960 -0.291920 
0.600690 16.837190 -0.946680 -2.282975 -0.281886 4.822782 -15.135324 13.442401 2.626854 9.272971 -1.555619 -18.111068 -6.842904 7.211511 18.072983 -0.772756 5.358437 3.099120 -0.228320 -0.730500 -0.100230 18.272348 -10.876726 2.424635 -10.767430 1.137346 -11.778293 10.232221 -6.323639 12.881766 0.302229 -4.478017 3.161519 -0.005730 1.163750 0.209800 -3.629267 -2.069228 -6.490141 6.414333 3.175044 1.954655 -0.147766 2.522438 7.565200 -2.418608 -3.921067 -7.010144 -7.791082 11.865806 24.797301 -5.121460 14.165260 10.990430 3.855911 4.190386 1.960816 -21.146532 -18.468370 3.052160 64.731232 -45.337167 -27.027544 -4.655888 2.708411 0.002650 0.999200 -0.888490 0.127070 1.076596 -1.966787 2.080146 42.878548 7.516533 -6.998258 -33.948687 46.319036 -12.170208 1.396951 -1.714027 -0.724390 0.347430 0.388220 -0.295940 
0.604900 16.837660 -0.947780 -2.356572 -0.534291 4.851022 -15.139630 13.434115 2.634530 9.384279 -1.541686 -18.262799 -6.957225 7.324913 18.335117 -0.765363 5.398740 3.078210 -0.222760 -0.722960 -0.084740 18.267929 -10.878014 2.427657 -10.702254 1.155082 -11.836389 10.193069 -6.296473 12.861269 0.300430 -4.465959 3.161825 -0.003490 1.152720 0.214760 -3.612112 -2.050558 -6.500380 6.004201 3.349272 2.005651 0.516983 2.548230 7.531630 -2.587976 -3.628679 -6.922425 -7.250595 11.770421 24.882169 -5.398700 14.462330 10.793670 4.186023 4.031519 1.836976 -18.944748 -17.713472 2.812941 61.612594 -47.032056 -25.869170 -4.640208 2.723882 0.001550 1.000770 -0.880490 0.122230 1.124080 -1.966872 2.047882 42.342297 7.582349 -6.882300 -34.081876 46.008295 -12.132248 1.402051 -1.717203 -0.719200 0.339640 0.381430 -0.301540 
0.611500 16.838540 -0.949190 -2.439770 -0.868862 4.892817 -15.143335 13.425278 2.640613 9.463178 -1.531845 -18.448140 -7.024797 7.439575 18.671743 -0.754616 5.439301 3.057909 -0.217630 -0.714370 -0.067690 18.264138 -10.878975 2.433270 -10.657917 1.175091 -11.914698 10.188981 -6.271223 12.812718 0.297506 -4.453738 3.160264 -0.002090 1.141770 0.220920 -3.595915 -2.028969 -6.510002 5.586038 3.537079 2.052634 1.273857 2.577169 7.502535 -2.787231 -3.340603 -6.832403 -6.719762 11.671555 24.952707 -5.736400 14.791290 10.582330 4.563305 3.861178 1.717693 -16.673599 -16.803189 2.599039 57.882914 -49.163891 -24.582322 -4.622002 2.752034 -0.001550 1.002810 -0.870790 0.117090 1.187065 -1.944711 2.005912 41.694023 7.694721 -6.733795 -34.194405 45.654322 -12.068515 1.410192 -1.720702 -0.712130 0.331520 0.373460 -0.305710 
0.619430 16.840050 -0.951420 -2.540364 -1.272282 4.921117 -15.147274 13.419770 2.646859 9.536317 -1.521917 -18.647897 -7.054480 7.553598 19.053105 -0.750365 5.484510 3.033647 -0.212950 -0.709360 -0.049790 18.259902 -10.879898 2.438495 -10.602050 1.195337 -11.988461 10.147490 -6.235639 12.752702 0.295805 -4.436104 3.160286 -0.000610 1.128870 0.226210 -3.577873 -2.013000 -6.519890 5.156676 3.723322 2.108558 2.115352 2.601850 7.496295 -3.011274 -3.073642 -6.759674 -6.238755 11.624297 25.068933 -6.066230 15.138600 10.332140 4.959194 3.631145 1.626791 -14.394129 -15.679912 2.414330 53.508722 -51.673293 -23.147192 -4.601499 2.797451 0.001670 1.002830 -0.860740 0.110190 1.284384 -1.842647 1.966317 40.960149 7.889249 -6.570522 -34.344795 45.185653 -11.988175 1.417764 -1.720748 -0.709070 0.324020 0.367730 -0.313540 
0.628910 16.841640 -0.953540 -2.667158 -1.769256 4.931956 -15.151454 13.414601 2.652135 9.626309 -1.503881 -18.838292 -7.085019 7.684117 19.478173 -0.747109 5.538530 3.005717 -0.205280 -0.703660 -0.028130 18.255724 -10.881300 2.442438 -10.544662 1.215612 -12.057741 10.095698 -6.200555 12.710721 0.293252 -4.417135 3.161726 0.001880 1.113070 0.229950 -3.558454 -1.996125 -6.527556 4.726254 3.933948 2.141755 3.022583 2.647371 7.554667 -3.236546 -2.809247 -6.699439 -5.770953 11.585785 25.236576 -6.396370 15.491030 10.047620 5.335078 3.323909 1.542256 -12.086823 -14.487849 2.313567 48.268410 -54.446434 -21.407427 -4.582933 2.872430 0.008000 1.000680 -0.850250 0.103310 1.405297 -1.653284 1.949107 40.177065 8.111286 -6.417132 -34.560280 44.625842 -11.919644 1.424632 -1.719947 -0.707110 0.317260 0.360810 -0.324390 
0.640010 16.844420 -0.957050 -2.829613 -2.337314 4.885499 -15.157885 13.413260 2.659457 9.764120 -1.473487 -19.015849 -7.144295 7.845023 19.961757 -0.741073 5.601610 2.968821 -0.193110 -0.694930 0.004500 18.249044 -10.881046 2.444829 -10.467876 1.227007 -12.077538 10.022317 -6.165322 12.679320 0.285221 -4.389684 3.162504 0.002420 1.083880 0.232560 -3.531192 -1.989607 -6.539038 4.307923 4.157795 2.205035 4.023157 2.708381 7.727635 -3.429388 -2.579792 -6.693641 -5.394063 11.507149 25.582168 -6.851570 15.871970 9.583410 5.654577 2.903879 1.520641 -9.894448 -13.234480 2.316027 42.254792 -57.378514 -19.368715 -4.562412 2.974160 0.022900 0.988480 -0.830230 0.091410 1.519412 -1.308877 1.983828 39.289278 8.343088 -6.311306 -34.716312 43.961038 -11.806443 1.437401 -1.712976 -0.701960 0.307990 0.350860 -0.339360 
0.652340 16.847590 -0.960880 -3.022692 -2.973517 4.827373 -15.165785 13.414463 2.664587 9.915218 -1.434361 -19.159803 -7.185002 8.001572 20.434909 -0.736919 5.664449 2.929805 -0.178410 -0.686180 0.042230 18.241339 -10.878886 2.447066 -10.367166 1.239392 -12.096859 9.938626 -6.127148 12.643103 0.275475 -4.358303 3.162104 0.001670 1.049910 0.236700 -3.499609 -1.988414 -6.548429 3.911359 4.390973 2.236590 5.072826 2.776691 8.012269 -3.584652 -2.385097 -6.736483 -5.086146 11.431954 25.983725 -7.373290 16.268150 9.049180 5.987555 2.458352 1.585836 -7.940194 -12.035807 2.511986 35.292005 -60.271747 -16.794023 -4.549648 3.107570 0.042000 0.973130 -0.807680 0.076750 1.550416 -0.911090 2.036716 38.364858 8.597408 -6.223285 -34.651912 43.291335 -11.614311 1.451069 -1.706433 -0.695450 0.295720 0.340800 -0.356920 
0.664590 16.850510 -0.965350 -3.227575 -3.647924 4.768384 -15.175413 13.410237 2.675066 10.141054 -1.384271 -19.312589 -7.347139 8.211146 20.911395 -0.733365 5.749629 2.881644 -0.165370 -0.679740 0.075540 18.233049 -10.871982 2.446626 -10.263792 1.253629 -12.125753 9.863416 -6.092458 12.616859 0.267238 -4.326066 3.164598 0.001540 1.017070 0.236650 -3.464498 -1.988236 -6.559206 3.518071 4.635882 2.239626 6.130095 2.859186 8.372013 -3.709399 -2.218989 -6.820842 -4.831874 11.382521 26.433713 -7.827610 16.623840 8.525790 6.283347 1.994841 1.738185 -6.246010 -11.001610 2.897566 27.696989 -62.923207 -13.634082 -4.542772 3.247564 0.064030 0.956310 -0.787660 0.062840 1.563542 -0.471541 2.096841 37.476374 8.877721 -6.151367 -34.572689 42.553970 -11.408657 1.462766 -1.697073 -0.693050 0.287240 0.333520 -0.375660 
0.676590 16.853530 -0.969830 -3.431778 -4.294114 4.696734 -15.185372 13.408444 2.685938 10.363720 -1.332005 -19.446220 -7.498900 8.408294 21.350299 -0.730476 5.826967 2.835165 -0.150450 -0.668020 0.107410 18.224548 -10.865136 2.444172 -10.135726 1.264610 -12.158143 9.754779 -6.053432 12.620636 0.258169 -4.289912 3.168158 0.003620 0.982980 0.234830 -3.429032 -1.993084 -6.568935 3.163937 4.865901 2.237706 7.175462 2.934305 8.767148 -3.830798 -2.108788 -6.926414 -4.688606 11.325282 26.932748 -8.254080 16.903690 7.937360 6.630013 1.606974 1.967556 -5.064381 -10.328966 3.440065 19.602380 -65.123720 -9.781170 -4.534505 3.375535 0.086680 0.937020 -0.765750 0.049180 1.516994 -0.076658 2.128196 36.680078 9.216935 -6.061009 -34.449420 41.768310 -11.173687 1.476162 -1.686580 -0.689310 0.280800 0.325710 -0.392310 
